<?xml version="1.0" encoding="UTF-8" standalone="no"?>
<!-- Generator: Adobe Illustrator 19.0.0, SVG Export Plug-In . SVG Version: 6.00 Build 0)  -->

<svg
   xmlns:dc="http://purl.org/dc/elements/1.1/"
   xmlns:cc="http://creativecommons.org/ns#"
   xmlns:rdf="http://www.w3.org/1999/02/22-rdf-syntax-ns#"
   xmlns:svg="http://www.w3.org/2000/svg"
   xmlns="http://www.w3.org/2000/svg"
   xmlns:sodipodi="http://sodipodi.sourceforge.net/DTD/sodipodi-0.dtd"
   xmlns:inkscape="http://www.inkscape.org/namespaces/inkscape"
   version="1.1"
   id="Capa_1"
   x="0px"
   y="0px"
   viewBox="0 0 51.976 51.976"
   style="enable-background:new 0 0 51.976 51.976;"
   xml:space="preserve"
   inkscape:version="0.91 r13725"
   sodipodi:docname="error1.svg"><metadata
     id="metadata4206"><rdf:RDF><cc:Work
         rdf:about=""><dc:format>image/svg+xml</dc:format><dc:type
           rdf:resource="http://purl.org/dc/dcmitype/StillImage" /></cc:Work></rdf:RDF></metadata><defs
     id="defs4204" /><sodipodi:namedview
     pagecolor="#ffffff"
     bordercolor="#666666"
     borderopacity="1"
     objecttolerance="10"
     gridtolerance="10"
     guidetolerance="10"
     inkscape:pageopacity="0"
     inkscape:pageshadow="2"
     inkscape:window-width="732"
     inkscape:window-height="480"
     id="namedview4202"
     showgrid="false"
     inkscape:zoom="4.540557"
     inkscape:cx="-11.562458"
     inkscape:cy="25.988001"
     inkscape:window-x="0"
     inkscape:window-y="0"
     inkscape:window-maximized="0"
     inkscape:current-layer="Capa_1" /><g
     id="g4168"
     style="fill:#bd4932;fill-opacity:1"><path
       d="M44.373,7.603c-10.137-10.137-26.632-10.138-36.77,0c-10.138,10.138-10.137,26.632,0,36.77s26.632,10.138,36.77,0   C54.51,34.235,54.51,17.74,44.373,7.603z M36.241,36.241c-0.781,0.781-2.047,0.781-2.828,0l-7.425-7.425l-7.778,7.778   c-0.781,0.781-2.047,0.781-2.828,0c-0.781-0.781-0.781-2.047,0-2.828l7.778-7.778l-7.425-7.425c-0.781-0.781-0.781-2.048,0-2.828   c0.781-0.781,2.047-0.781,2.828,0l7.425,7.425l7.071-7.071c0.781-0.781,2.047-0.781,2.828,0c0.781,0.781,0.781,2.047,0,2.828   l-7.071,7.071l7.425,7.425C37.022,34.194,37.022,35.46,36.241,36.241z"
       id="path4170"
       style="fill:#bd4932;fill-opacity:1" /></g><g
     id="g4172" /><g
     id="g4174" /><g
     id="g4176" /><g
     id="g4178" /><g
     id="g4180" /><g
     id="g4182" /><g
     id="g4184" /><g
     id="g4186" /><g
     id="g4188" /><g
     id="g4190" /><g
     id="g4192" /><g
     id="g4194" /><g
     id="g4196" /><g
     id="g4198" /><g
     id="g4200" /></svg>