<?xml version="1.0" encoding="UTF-8" standalone="no"?>
<!-- Generator: Adobe Illustrator 18.0.0, SVG Export Plug-In . SVG Version: 6.00 Build 0)  -->

<svg
   xmlns:dc="http://purl.org/dc/elements/1.1/"
   xmlns:cc="http://creativecommons.org/ns#"
   xmlns:rdf="http://www.w3.org/1999/02/22-rdf-syntax-ns#"
   xmlns:svg="http://www.w3.org/2000/svg"
   xmlns="http://www.w3.org/2000/svg"
   xmlns:sodipodi="http://sodipodi.sourceforge.net/DTD/sodipodi-0.dtd"
   xmlns:inkscape="http://www.inkscape.org/namespaces/inkscape"
   version="1.1"
   id="Capa_1"
   x="0px"
   y="0px"
   viewBox="0 0 57 57"
   style="enable-background:new 0 0 57 57;"
   xml:space="preserve"
   inkscape:version="0.91 r13725"
   sodipodi:docname="ice-cream-10.svg"><metadata
     id="metadata4799"><rdf:RDF><cc:Work
         rdf:about=""><dc:format>image/svg+xml</dc:format><dc:type
           rdf:resource="http://purl.org/dc/dcmitype/StillImage" /></cc:Work></rdf:RDF></metadata><defs
     id="defs4797" /><sodipodi:namedview
     pagecolor="#ffffff"
     bordercolor="#666666"
     borderopacity="1"
     objecttolerance="10"
     gridtolerance="10"
     guidetolerance="10"
     inkscape:pageopacity="0"
     inkscape:pageshadow="2"
     inkscape:window-width="686"
     inkscape:window-height="480"
     id="namedview4795"
     showgrid="false"
     inkscape:zoom="4.1403509"
     inkscape:cx="28.5"
     inkscape:cy="28.5"
     inkscape:window-x="0"
     inkscape:window-y="0"
     inkscape:window-maximized="0"
     inkscape:current-layer="Capa_1" /><g
     id="g4759"
     style="fill:#fffad5;fill-opacity:1"><path
       d="M43.46,17.721L43.251,17h-0.779c-0.426-1.676-1.621-3.037-3.175-3.705c0.062-0.326,0.095-0.654,0.095-0.981   c0-3.035-2.469-5.505-5.504-5.505c-2.22,0-4.178,1.318-5.04,3.298c-0.035-0.004-0.071-0.003-0.106-0.006l0.449-5.36   c0.035-0.415-0.192-0.809-0.568-0.986l-7.721-3.658c-0.498-0.235-1.095-0.024-1.332,0.476c-0.236,0.499-0.023,1.095,0.476,1.331   l7.095,3.362L26.856,8.65c-1.021-1.252-2.565-2.045-4.261-2.045c-3.035,0-5.504,2.469-5.504,5.504c0,0.473,0.068,0.937,0.187,1.389   C15.922,14.217,14.888,15.472,14.5,17h-0.751l-0.209,0.722c-1.594,5.489,2.731,9.527,3.265,9.999c2.11,2.25,4.126,4.457,5.62,6.669   c-0.797,1.217-1.23,2.65-1.23,4.11c0,2.438,1.196,4.718,3.165,6.115c-0.06,0.294-0.112,0.595-0.167,0.906   c-0.092,0.53-0.188,1.08-0.33,1.613C23.505,48.476,23.76,49.87,24.55,51h-4.356c-0.801,0-1.554,0.313-2.121,0.879   c-0.875,0.874-1.124,2.127-0.65,3.27C17.895,56.29,18.957,57,20.194,57h17c1.237,0,2.299-0.71,2.772-1.853   c0.473-1.142,0.224-2.395-0.651-3.269C38.748,51.312,37.995,51,37.194,51H32.33c0.739-1.053,1.012-2.351,0.738-3.612   c-0.102-0.47-0.161-0.962-0.218-1.438c-0.044-0.368-0.089-0.743-0.154-1.112c2.176-1.368,3.499-3.73,3.499-6.338   c0-1.581-0.501-3.112-1.425-4.388c1.488-2.14,3.488-4.324,5.427-6.392C40.729,27.249,45.054,23.21,43.46,17.721z M40.379,17H35.03   c0-0.013,0-0.026,0-0.039c0-0.22-0.012-0.441-0.034-0.662c-0.019-0.202-0.051-0.399-0.087-0.595   c-0.002-0.013-0.003-0.026-0.006-0.038c0.023-0.019,0.048-0.035,0.072-0.053c0.112-0.089,0.229-0.171,0.351-0.246   c0.063-0.039,0.128-0.074,0.194-0.109c0.092-0.049,0.186-0.091,0.282-0.132c0.075-0.031,0.15-0.065,0.227-0.091   c0.129-0.044,0.262-0.078,0.396-0.107c0.098-0.021,0.198-0.035,0.298-0.047c0.106-0.013,0.211-0.025,0.318-0.028   c0.083-0.003,0.166-0.002,0.249,0.001c0.087,0.004,0.174,0.01,0.26,0.02c0.071,0.008,0.142,0.017,0.212,0.029   C38.937,15.113,39.924,15.915,40.379,17z M25.154,17c-0.004-0.017-0.012-0.034-0.016-0.051c-0.019-0.071-0.045-0.138-0.067-0.208   c-0.072-0.235-0.16-0.464-0.262-0.687c-0.03-0.065-0.058-0.132-0.091-0.196c-0.14-0.276-0.3-0.54-0.485-0.79   c-0.004-0.006-0.009-0.011-0.014-0.017c-0.112-0.15-0.228-0.298-0.355-0.436c0.025-0.044,0.046-0.091,0.072-0.134   c0.033-0.056,0.07-0.11,0.105-0.164c0.714-1.094,1.854-1.888,3.158-2.143c0.005-0.001,0.009-0.005,0.014-0.006   c0.302-0.058,0.61-0.098,0.927-0.098c0.643,0,1.254,0.132,1.817,0.359c0.088,0.035,0.171,0.079,0.256,0.119   c0.175,0.083,0.345,0.174,0.508,0.276c0.077,0.048,0.155,0.094,0.229,0.146c0.213,0.151,0.416,0.315,0.602,0.497   c0.051,0.049,0.095,0.105,0.144,0.156c0.143,0.153,0.276,0.314,0.399,0.484c0.052,0.072,0.104,0.142,0.152,0.217   c0.142,0.22,0.27,0.449,0.376,0.691c0.029,0.067,0.048,0.138,0.074,0.206c0.073,0.192,0.135,0.389,0.184,0.592   c0.025,0.101,0.047,0.202,0.065,0.303c0.048,0.276,0.085,0.555,0.085,0.844c0,0.012-0.002,0.027-0.002,0.039H25.154z M33.887,8.808   c1.932,0,3.504,1.572,3.504,3.505c0,0.176-0.015,0.354-0.044,0.532c-0.038-0.002-0.076,0.005-0.114,0.004   c-0.029,0-0.055-0.008-0.084-0.008c-0.2,0-0.399,0.012-0.596,0.034c-0.063,0.007-0.125,0.021-0.188,0.03   c-0.178,0.026-0.353,0.06-0.527,0.103c-0.085,0.021-0.169,0.043-0.253,0.068c-0.193,0.058-0.382,0.125-0.568,0.203   c-0.034,0.015-0.07,0.025-0.104,0.04c-0.218,0.097-0.426,0.213-0.63,0.338c-0.025,0.015-0.052,0.026-0.076,0.041   c-0.175-0.324-0.38-0.629-0.603-0.919c-0.022-0.029-0.042-0.058-0.065-0.087c-0.219-0.276-0.459-0.533-0.717-0.773   c-0.033-0.03-0.065-0.06-0.099-0.09c-0.267-0.239-0.549-0.458-0.851-0.653c-0.017-0.011-0.034-0.02-0.051-0.031   c-0.317-0.202-0.649-0.384-0.998-0.532C31.428,9.518,32.587,8.808,33.887,8.808z M19.177,12.879   c-0.058-0.252-0.087-0.51-0.087-0.771c0-1.932,1.572-3.504,3.504-3.504c1.337,0,2.537,0.767,3.124,1.914   c-0.014,0.005-0.026,0.014-0.04,0.019c-0.326,0.124-0.638,0.272-0.939,0.443c-0.044,0.025-0.087,0.05-0.13,0.076   c-0.269,0.161-0.524,0.339-0.768,0.536c-0.057,0.046-0.115,0.09-0.171,0.137c-0.217,0.187-0.42,0.389-0.613,0.603   c-0.062,0.068-0.128,0.132-0.187,0.203c-0.176,0.211-0.333,0.438-0.485,0.671c-0.045,0.069-0.101,0.128-0.143,0.199   c-0.097-0.048-0.199-0.085-0.299-0.127c-0.05-0.021-0.098-0.043-0.148-0.063c-0.278-0.107-0.563-0.192-0.855-0.253   c-0.058-0.012-0.116-0.02-0.175-0.031c-0.31-0.055-0.623-0.091-0.941-0.091C19.607,12.841,19.392,12.854,19.177,12.879z    M18.852,14.985c0.252-0.073,0.51-0.114,0.768-0.128c0.028-0.002,0.055-0.005,0.083-0.006c0.27-0.008,0.54,0.014,0.804,0.068   c0.02,0.004,0.039,0.009,0.059,0.014c0.526,0.115,1.022,0.354,1.447,0.698c0.029,0.024,0.06,0.045,0.088,0.069   c0.123,0.107,0.239,0.221,0.345,0.343c0.043,0.049,0.085,0.097,0.126,0.148c0.113,0.146,0.216,0.299,0.305,0.461   c0.028,0.049,0.052,0.101,0.077,0.152c0.031,0.063,0.052,0.131,0.079,0.197h-6.44C17,16.027,17.837,15.282,18.852,14.985z    M37.901,53.292c0.438,0.438,0.277,0.944,0.217,1.09C38.057,54.527,37.814,55,37.194,55h-17c-0.62,0-0.864-0.473-0.924-0.617   s-0.222-0.651,0.217-1.09C19.673,53.106,19.93,53,20.194,53h8.176h0.13h8.694C37.457,53,37.714,53.106,37.901,53.292z    M38.852,26.238l-0.081,0.077c-2.192,2.337-4.467,4.826-6.082,7.304l-0.419,0.643l0.513,0.571c0.91,1.014,1.411,2.315,1.411,3.667   c0,2.109-1.181,3.999-3.082,4.934l-0.761,0.374l0.245,0.813c0.134,0.444,0.2,0.99,0.269,1.567c0.063,0.522,0.127,1.063,0.25,1.624   c0.167,0.771-0.024,1.568-0.523,2.188c-0.513,0.636-1.274,1-2.09,1h-0.13c-0.834,0-1.604-0.379-2.112-1.04   c-0.509-0.661-0.677-1.504-0.463-2.312c0.165-0.618,0.268-1.211,0.367-1.784c0.091-0.522,0.177-1.015,0.296-1.436l0.215-0.756   l-0.684-0.388c-1.724-0.977-2.795-2.811-2.795-4.785c0-1.27,0.422-2.463,1.222-3.451l0.451-0.558l-0.383-0.606   c-1.622-2.562-3.884-5.042-6.254-7.569l-0.081-0.077c-0.038-0.032-3.575-3.104-2.855-7.238h0.043h8.972h0.002h9.618h0.004h7.703   h0.072C42.43,23.102,39.005,26.107,38.852,26.238z"
       id="path4761"
       style="fill:#fffad5;fill-opacity:1" /><path
       d="M28.694,35c-1.93,0-3.5,1.57-3.5,3.5s1.57,3.5,3.5,3.5s3.5-1.57,3.5-3.5S30.623,35,28.694,35z M28.694,40   c-0.827,0-1.5-0.673-1.5-1.5s0.673-1.5,1.5-1.5s1.5,0.673,1.5,1.5S29.521,40,28.694,40z"
       id="path4763"
       style="fill:#fffad5;fill-opacity:1" /></g><g
     id="g4765" /><g
     id="g4767" /><g
     id="g4769" /><g
     id="g4771" /><g
     id="g4773" /><g
     id="g4775" /><g
     id="g4777" /><g
     id="g4779" /><g
     id="g4781" /><g
     id="g4783" /><g
     id="g4785" /><g
     id="g4787" /><g
     id="g4789" /><g
     id="g4791" /><g
     id="g4793" /></svg>