<?xml version="1.0" encoding="UTF-8" standalone="no"?>
<!-- Generator: Adobe Illustrator 18.0.0, SVG Export Plug-In . SVG Version: 6.00 Build 0)  -->

<svg
   xmlns:dc="http://purl.org/dc/elements/1.1/"
   xmlns:cc="http://creativecommons.org/ns#"
   xmlns:rdf="http://www.w3.org/1999/02/22-rdf-syntax-ns#"
   xmlns:svg="http://www.w3.org/2000/svg"
   xmlns="http://www.w3.org/2000/svg"
   xmlns:sodipodi="http://sodipodi.sourceforge.net/DTD/sodipodi-0.dtd"
   xmlns:inkscape="http://www.inkscape.org/namespaces/inkscape"
   version="1.1"
   id="Capa_1"
   x="0px"
   y="0px"
   viewBox="0 0 55.308 55.308"
   style="enable-background:new 0 0 55.308 55.308;"
   xml:space="preserve"
   inkscape:version="0.91 r13725"
   sodipodi:docname="olives.svg"><metadata
     id="metadata51"><rdf:RDF><cc:Work
         rdf:about=""><dc:format>image/svg+xml</dc:format><dc:type
           rdf:resource="http://purl.org/dc/dcmitype/StillImage" /></cc:Work></rdf:RDF></metadata><defs
     id="defs49" /><sodipodi:namedview
     pagecolor="#ffffff"
     bordercolor="#666666"
     borderopacity="1"
     objecttolerance="10"
     gridtolerance="10"
     guidetolerance="10"
     inkscape:pageopacity="0"
     inkscape:pageshadow="2"
     inkscape:window-width="686"
     inkscape:window-height="480"
     id="namedview47"
     showgrid="false"
     inkscape:zoom="4.2670139"
     inkscape:cx="27.653999"
     inkscape:cy="27.653999"
     inkscape:window-x="0"
     inkscape:window-y="0"
     inkscape:window-maximized="0"
     inkscape:current-layer="Capa_1" /><g
     id="g3"
     style="fill:#fffad5;fill-opacity:1"><path
       d="M25.554,40.259c-0.326-0.925-0.492-1.895-0.492-2.882c0-0.552-0.447-1-1-1s-1,0.448-1,1c0,1.215,0.204,2.408,0.607,3.548   c0.145,0.411,0.53,0.667,0.942,0.667c0.11,0,0.223-0.019,0.333-0.058C25.465,41.351,25.738,40.779,25.554,40.259z"
       id="path5"
       style="fill:#fffad5;fill-opacity:1" /><path
       d="M33.685,46c0,0-0.001,0-0.002,0c-2.493,0-4.865-1.081-6.507-2.966c-0.362-0.418-0.996-0.459-1.411-0.097   c-0.416,0.362-0.46,0.994-0.097,1.411C27.689,46.669,30.61,48,33.683,48c0.001,0,0.002,0,0.002,0c0.553,0,1-0.448,1-1   S34.236,46,33.685,46z"
       id="path7"
       style="fill:#fffad5;fill-opacity:1" /><path
       d="M55.308,18.177c0-8.063-6.56-14.623-14.623-14.623c-7.82,0-14.207,6.174-14.586,13.901   c-2.701-3.426-6.879-5.609-11.475-5.609C6.56,11.846,0,18.406,0,26.469s6.56,14.623,14.623,14.623c1.612,0,3.182-0.273,4.689-0.785   c1.456,6.539,7.294,11.446,14.265,11.446c8.063,0,14.623-6.56,14.623-14.623c0-2.055-0.43-4.009-1.199-5.785   C52.016,28.933,55.308,23.793,55.308,18.177z M14.623,39.092C7.663,39.092,2,33.43,2,26.469s5.663-12.623,12.623-12.623   c6.003,0,11.19,4.305,12.36,10.13c-5.024,2.441-8.229,7.52-8.229,13.154c0,0.397,0.021,0.805,0.063,1.248   C17.473,38.853,16.065,39.092,14.623,39.092z M33.577,49.754c-6.96,0-12.623-5.663-12.623-12.623   c0-6.933,5.62-12.575,12.542-12.619c0.171,0.002,0.342,0.009,0.512,0.018c0.11,0.004,0.22,0.01,0.329,0.017   c4.358,0.329,8.232,2.879,10.262,6.823l0.408,0.793c0,0,1.193,3.183,1.193,4.968C46.2,44.091,40.537,49.754,33.577,49.754z    M46.072,29.573c-2.416-3.979-6.666-6.711-11.575-7.019c-0.185-0.014-0.371-0.021-0.557-0.028c-0.122-0.003-0.24-0.018-0.363-0.018   c-0.026,0-0.052,0.004-0.078,0.004c-0.041,0-0.081-0.004-0.122-0.004c-1.445,0-2.882,0.219-4.283,0.652   c-0.686-1.581-1.032-3.254-1.032-4.983c0-6.96,5.663-12.623,12.623-12.623s12.623,5.663,12.623,12.623   C53.308,23.047,50.436,27.504,46.072,29.573z"
       id="path9"
       style="fill:#fffad5;fill-opacity:1" /><path
       d="M19.308,20.254c0-1.738-1.757-3.1-4-3.1s-4,1.362-4,3.1s1.757,3.1,4,3.1c0.553,0,1-0.448,1-1s-0.447-1-1-1   c-1.145,0-2-0.581-2-1.1s0.855-1.1,2-1.1s2,0.581,2,1.1c0,0.552,0.447,1,1,1S19.308,20.806,19.308,20.254z"
       id="path11"
       style="fill:#fffad5;fill-opacity:1" /><path
       d="M41.308,7.754c-2.243,0-4,1.362-4,3.1s1.757,3.1,4,3.1c0.553,0,1-0.448,1-1s-0.447-1-1-1c-1.145,0-2-0.581-2-1.1   c0-0.52,0.855-1.1,2-1.1s2,0.581,2,1.1c0,0.552,0.447,1,1,1s1-0.448,1-1C45.308,9.116,43.551,7.754,41.308,7.754z"
       id="path13"
       style="fill:#fffad5;fill-opacity:1" /><path
       d="M34.308,26.754c-2.243,0-4,1.362-4,3.1s1.757,3.1,4,3.1c0.553,0,1-0.448,1-1s-0.447-1-1-1c-1.145,0-2-0.581-2-1.1   c0-0.52,0.855-1.1,2-1.1s2,0.581,2,1.1c0,0.552,0.447,1,1,1s1-0.448,1-1C38.308,28.116,36.551,26.754,34.308,26.754z"
       id="path15"
       style="fill:#fffad5;fill-opacity:1" /></g><g
     id="g17" /><g
     id="g19" /><g
     id="g21" /><g
     id="g23" /><g
     id="g25" /><g
     id="g27" /><g
     id="g29" /><g
     id="g31" /><g
     id="g33" /><g
     id="g35" /><g
     id="g37" /><g
     id="g39" /><g
     id="g41" /><g
     id="g43" /><g
     id="g45" /></svg>