<?xml version="1.0" encoding="UTF-8" standalone="no"?>
<!-- Generator: Adobe Illustrator 19.0.0, SVG Export Plug-In . SVG Version: 6.00 Build 0)  -->

<svg
   xmlns:dc="http://purl.org/dc/elements/1.1/"
   xmlns:cc="http://creativecommons.org/ns#"
   xmlns:rdf="http://www.w3.org/1999/02/22-rdf-syntax-ns#"
   xmlns:svg="http://www.w3.org/2000/svg"
   xmlns="http://www.w3.org/2000/svg"
   xmlns:sodipodi="http://sodipodi.sourceforge.net/DTD/sodipodi-0.dtd"
   xmlns:inkscape="http://www.inkscape.org/namespaces/inkscape"
   version="1.1"
   id="Capa_1"
   x="0px"
   y="0px"
   viewBox="0 0 49.94 49.94"
   style="enable-background:new 0 0 49.94 49.94;"
   xml:space="preserve"
   inkscape:version="0.91 r13725"
   sodipodi:docname="star2.svg"><metadata
     id="metadata5370"><rdf:RDF><cc:Work
         rdf:about=""><dc:format>image/svg+xml</dc:format><dc:type
           rdf:resource="http://purl.org/dc/dcmitype/StillImage" /><dc:title></dc:title></cc:Work></rdf:RDF></metadata><defs
     id="defs5368" /><sodipodi:namedview
     pagecolor="#ffffff"
     bordercolor="#666666"
     borderopacity="1"
     objecttolerance="10"
     gridtolerance="10"
     guidetolerance="10"
     inkscape:pageopacity="0"
     inkscape:pageshadow="2"
     inkscape:window-width="686"
     inkscape:window-height="480"
     id="namedview5366"
     showgrid="false"
     inkscape:zoom="4.7256709"
     inkscape:cx="24.969999"
     inkscape:cy="25.966405"
     inkscape:window-x="0"
     inkscape:window-y="0"
     inkscape:window-maximized="0"
     inkscape:current-layer="Capa_1" /><path
     style="fill:#ffd34e;fill-opacity:1"
     d="M 10.421568,47.741187 C 9.3922387,47.247496 9.3995226,46.86946 10.569485,40.064485 11.795108,32.93576 11.866536,31.980644 11.249694,30.969053 11.016947,30.587361 8.61629,28.096316 5.9149011,25.433396 0.68357048,20.276562 0.48700487,19.992904 1.3923406,18.907027 c 0.3397909,-0.407552 1.2488355,-0.592118 7.1789271,-1.457558 3.7344293,-0.545003 7.0358473,-1.085328 7.3364823,-1.20072 1.175938,-0.451364 1.822838,-1.468017 4.738102,-7.4462899 3.191258,-6.544248 3.585264,-7.0962966 4.774023,-6.6889447 0.499833,0.1712779 1.105841,1.2155501 3.817749,6.5787247 1.772984,3.5063209 3.366385,6.5392169 3.540892,6.7397679 0.67356,0.774087 1.771151,1.040967 7.851421,1.909078 3.455067,0.493298 6.661548,0.996339 7.125513,1.11787 0.947589,0.248207 1.406562,0.951842 1.18825,1.821662 -0.07892,0.314449 -2.2452,2.581476 -5.129104,5.367649 -3.997039,3.861584 -5.06766,5.020146 -5.369537,5.810607 -0.373552,0.97813 -0.366373,1.049909 0.771215,7.709908 0.631551,3.697423 1.145792,6.982201 1.142754,7.299502 -0.007,0.741183 -0.722974,1.386816 -1.505496,1.357766 -0.336626,-0.01249 -3.309427,-1.445056 -6.606228,-3.183466 -4.633844,-2.443435 -6.233683,-3.18376 -7.049507,-3.262149 -1.004984,-0.09657 -1.350003,0.05233 -7.233712,3.121862 -3.398118,1.772795 -6.378481,3.278024 -6.62303,3.344952 -0.24455,0.06693 -0.658319,0.01921 -0.919487,-0.106061 z"
     id="path5912"
     inkscape:connector-curvature="0" /><path
     d="M48.856,22.731c0.983-0.958,1.33-2.364,0.906-3.671c-0.425-1.307-1.532-2.24-2.892-2.438l-12.092-1.757  c-0.515-0.075-0.96-0.398-1.19-0.865L28.182,3.043c-0.607-1.231-1.839-1.996-3.212-1.996c-1.372,0-2.604,0.765-3.211,1.996  L16.352,14c-0.23,0.467-0.676,0.79-1.191,0.865L3.069,16.623C1.71,16.82,0.603,17.753,0.178,19.06  c-0.424,1.307-0.077,2.713,0.906,3.671l8.749,8.528c0.373,0.364,0.544,0.888,0.456,1.4L8.224,44.702  c-0.232,1.353,0.313,2.694,1.424,3.502c1.11,0.809,2.555,0.914,3.772,0.273l10.814-5.686c0.461-0.242,1.011-0.242,1.472,0  l10.815,5.686c0.528,0.278,1.1,0.415,1.669,0.415c0.739,0,1.475-0.231,2.103-0.688c1.111-0.808,1.656-2.149,1.424-3.502  L39.651,32.66c-0.088-0.513,0.083-1.036,0.456-1.4L48.856,22.731z M37.681,32.998l2.065,12.042c0.104,0.606-0.131,1.185-0.629,1.547  c-0.499,0.361-1.12,0.405-1.665,0.121l-10.815-5.687c-0.521-0.273-1.095-0.411-1.667-0.411s-1.145,0.138-1.667,0.412l-10.813,5.686  c-0.547,0.284-1.168,0.24-1.666-0.121c-0.498-0.362-0.732-0.94-0.629-1.547l2.065-12.042c0.199-1.162-0.186-2.348-1.03-3.17  L2.48,21.299c-0.441-0.43-0.591-1.036-0.4-1.621c0.19-0.586,0.667-0.988,1.276-1.077l12.091-1.757  c1.167-0.169,2.176-0.901,2.697-1.959l5.407-10.957c0.272-0.552,0.803-0.881,1.418-0.881c0.616,0,1.146,0.329,1.419,0.881  l5.407,10.957c0.521,1.058,1.529,1.79,2.696,1.959l12.092,1.757c0.609,0.089,1.086,0.491,1.276,1.077  c0.19,0.585,0.041,1.191-0.4,1.621l-8.749,8.528C37.866,30.65,37.481,31.835,37.681,32.998z"
     id="path5334"
     style="fill:#db9e36;fill-opacity:1" /><g
     id="g5336" /><g
     id="g5338" /><g
     id="g5340" /><g
     id="g5342" /><g
     id="g5344" /><g
     id="g5346" /><g
     id="g5348" /><g
     id="g5350" /><g
     id="g5352" /><g
     id="g5354" /><g
     id="g5356" /><g
     id="g5358" /><g
     id="g5360" /><g
     id="g5362" /><g
     id="g5364" /></svg>