<?xml version="1.0" encoding="UTF-8" standalone="no"?>
<!-- Generator: Adobe Illustrator 18.0.0, SVG Export Plug-In . SVG Version: 6.00 Build 0)  -->

<svg
   xmlns:dc="http://purl.org/dc/elements/1.1/"
   xmlns:cc="http://creativecommons.org/ns#"
   xmlns:rdf="http://www.w3.org/1999/02/22-rdf-syntax-ns#"
   xmlns:svg="http://www.w3.org/2000/svg"
   xmlns="http://www.w3.org/2000/svg"
   xmlns:sodipodi="http://sodipodi.sourceforge.net/DTD/sodipodi-0.dtd"
   xmlns:inkscape="http://www.inkscape.org/namespaces/inkscape"
   version="1.1"
   id="Capa_1"
   x="0px"
   y="0px"
   viewBox="0 0 51.831 51.831"
   style="enable-background:new 0 0 51.831 51.831;"
   xml:space="preserve"
   inkscape:version="0.91 r13725"
   sodipodi:docname="steak-r.svg"><metadata
     id="metadata45"><rdf:RDF><cc:Work
         rdf:about=""><dc:format>image/svg+xml</dc:format><dc:type
           rdf:resource="http://purl.org/dc/dcmitype/StillImage" /><dc:title></dc:title></cc:Work></rdf:RDF></metadata><defs
     id="defs43" /><sodipodi:namedview
     pagecolor="#ffffff"
     bordercolor="#666666"
     borderopacity="1"
     objecttolerance="10"
     gridtolerance="10"
     guidetolerance="10"
     inkscape:pageopacity="0"
     inkscape:pageshadow="2"
     inkscape:window-width="686"
     inkscape:window-height="480"
     id="namedview41"
     showgrid="false"
     inkscape:zoom="4.5532595"
     inkscape:cx="-6.4788749"
     inkscape:cy="25.915501"
     inkscape:window-x="0"
     inkscape:window-y="0"
     inkscape:window-maximized="0"
     inkscape:current-layer="Capa_1" /><g
     id="g3"
     style="fill:#bd4932;fill-opacity:1"><path
       d="M49.594,14.106C47.749,9.562,44.308,3.652,38.385,1.295c-4.345-1.73-9.38-1.315-14.964,1.23   c-6.982,3.183-9.266,8.888-6.428,16.065c0.88,2.226,0.546,4.657-0.895,6.503c-1.443,1.849-3.727,2.76-6.105,2.454   c-3.792-0.497-6.702,0.353-8.42,2.461c-1.315,1.615-2.479,4.699-0.56,10.219l0.036,0.09c0.137,0.299,3.463,7.35,11.999,10.172   c1.844,0.61,3.754,0.779,5.601,0.942l0.292,0.026c0.616,0.055,1.68,0.126,3.061,0.126c3.447,0,8.873-0.441,14.262-2.671   c7.851-3.248,12.832-9.032,14.804-17.192C52.454,25.987,51.944,19.895,49.594,14.106z M49.124,31.25   c-1.813,7.504-6.397,12.825-13.625,15.815c-7.126,2.947-14.337,2.581-16.38,2.4l-0.293-0.026c-1.813-0.16-3.525-0.312-5.149-0.849   C6.3,46.151,3.15,40.057,2.884,39.517c-1.242-3.603-1.157-6.529,0.24-8.246c1.257-1.542,3.542-2.142,6.607-1.741   c3.097,0.409,6.061-0.792,7.944-3.206c1.881-2.411,2.32-5.577,1.177-8.469c-2.456-6.213-0.64-10.758,5.398-13.51   c5.07-2.31,9.577-2.711,13.395-1.192c5.267,2.096,8.396,7.522,10.095,11.705C49.933,20.258,50.411,25.925,49.124,31.25z"
       id="path5"
       style="fill:#bd4932;fill-opacity:1" /><path
       d="M33.46,18.788c2.757,0,5-2.243,5-5s-2.243-5-5-5s-5,2.243-5,5S30.703,18.788,33.46,18.788z M33.46,10.788   c1.654,0,3,1.346,3,3s-1.346,3-3,3c-1.654,0-3-1.346-3-3S31.806,10.788,33.46,10.788z"
       id="path7"
       style="fill:#bd4932;fill-opacity:1" /><path
       d="M47.785,24.246c-0.127-2.86-0.746-5.745-1.886-8.554C41.557,5.002,34.427,1.75,24.747,6.157   c-1.938,0.884-7.834,3.572-4.645,11.638c1.161,2.938,0.825,6.096-0.921,8.661c-1.977,2.907-5.398,4.428-8.936,3.961   c-2.635-0.352-4.612,0.171-5.524,1.456c-0.967,1.361-0.958,3.718,0.026,6.635l0.058,0.137c0.499,0.974,3.312,5.938,9.688,8.047   c1.449,0.479,3.032,0.619,4.706,0.767l0.283,0.025c0.848,0.076,1.758,0.114,2.706,0.114c18.89,0,23.77-11.753,24.991-16.807   c0.502-2.077,0.693-4.212,0.614-6.362C47.799,24.366,47.792,24.307,47.785,24.246z M25.577,7.977   c2.533-1.155,4.866-1.74,6.934-1.74c4.903,0,8.784,3.435,11.535,10.207c0.822,2.025,1.344,4.091,1.597,6.153   c-4.479-1.264-12.412,2.665-13.736,3.347c-5.981,1.902-8.751-0.825-9.511-1.79c0.615-2.297,0.491-4.752-0.435-7.094   C19.768,11.509,22.558,9.353,25.577,7.977z M20.836,27.581c0.301-0.442,0.558-0.902,0.79-1.37c1.169,1.071,3.25,2.384,6.453,2.384   c1.314,0,2.817-0.222,4.521-0.772c0.053-0.017,0.104-0.038,0.154-0.064c3.939-2.052,10.765-4.544,13.057-2.926   c0.041,1.857-0.143,3.698-0.575,5.489c-0.01,0.04-0.022,0.084-0.032,0.125c-2.178-0.613-7.46-1.228-16.177,2.953   c-2.981,1.43-5.555,1.709-7.648,0.832c-2.024-0.848-3.157-2.609-3.659-3.599C18.925,29.839,19.993,28.82,20.836,27.581z    M19.661,45.491l-0.284-0.025c-1.557-0.137-3.027-0.267-4.256-0.673c-5.567-1.842-8.102-6.239-8.503-6.997   c-0.857-2.58-0.701-4.151-0.266-4.765c0.435-0.613,1.839-0.869,3.632-0.632c2,0.264,3.963-0.017,5.742-0.729   c0.06,0.325,0.123,0.693,0.181,1.09c0.51,3.478,2.452,6.61,5.327,8.595c2.058,1.419,3.449,2.699,3.512,4.156   c-0.823,0.053-1.669,0.087-2.558,0.087C21.3,45.597,20.449,45.561,19.661,45.491z M26.746,45.332   c-0.161-2.71-2.837-4.562-4.376-5.624c-1.757-1.212-3.099-2.934-3.867-4.907c0.588,0.485,1.277,0.926,2.078,1.265   c2.649,1.121,5.781,0.831,9.312-0.863c8.189-3.928,12.976-3.315,14.726-2.838C42.957,36.941,38.513,43.894,26.746,45.332z"
       id="path9"
       style="fill:#bd4932;fill-opacity:1" /></g><g
     id="g11" /><g
     id="g13" /><g
     id="g15" /><g
     id="g17" /><g
     id="g19" /><g
     id="g21" /><g
     id="g23" /><g
     id="g25" /><g
     id="g27" /><g
     id="g29" /><g
     id="g31" /><g
     id="g33" /><g
     id="g35" /><g
     id="g37" /><g
     id="g39" /></svg>