<?xml version="1.0" encoding="iso-8859-1"?>
<!-- Generator: Adobe Illustrator 18.0.0, SVG Export Plug-In . SVG Version: 6.00 Build 0)  -->
<!DOCTYPE svg PUBLIC "-//W3C//DTD SVG 1.1//EN" "http://www.w3.org/Graphics/SVG/1.1/DTD/svg11.dtd">
<svg version="1.1" id="Capa_1" xmlns="http://www.w3.org/2000/svg" xmlns:xlink="http://www.w3.org/1999/xlink" x="0px" y="0px"
	 viewBox="0 0 59 59" style="enable-background:new 0 0 59 59;" xml:space="preserve">
<g>
	<path d="M17.445,49.794c0.17,0.113,0.363,0.168,0.554,0.168c0.323,0,0.64-0.156,0.833-0.445c0.306-0.46,0.182-1.08-0.277-1.387
		l-3-2c-0.46-0.307-1.08-0.183-1.387,0.277c-0.306,0.46-0.182,1.08,0.277,1.387L17.445,49.794z"/>
	<path d="M22.553,49.856c0.144,0.071,0.296,0.105,0.446,0.105c0.367,0,0.72-0.202,0.896-0.553l1-2
		c0.247-0.494,0.047-1.095-0.447-1.342c-0.496-0.246-1.095-0.047-1.342,0.447l-1,2C21.858,49.009,22.059,49.609,22.553,49.856z"/>
	<path d="M28.105,52.409c0.175,0.351,0.528,0.553,0.896,0.553c0.15,0,0.303-0.034,0.446-0.105c0.494-0.247,0.694-0.848,0.447-1.342
		l-1-2c-0.247-0.494-0.846-0.693-1.342-0.447c-0.494,0.247-0.694,0.848-0.447,1.342L28.105,52.409z"/>
	<path d="M32.553,48.856c0.144,0.071,0.296,0.105,0.446,0.105c0.367,0,0.72-0.202,0.896-0.553l1-2
		c0.247-0.494,0.047-1.095-0.447-1.342c-0.496-0.245-1.095-0.046-1.342,0.447l-1,2C31.858,48.009,32.059,48.609,32.553,48.856z"/>
	<path d="M39.105,51.409c0.175,0.351,0.528,0.553,0.896,0.553c0.15,0,0.303-0.034,0.446-0.105c0.494-0.247,0.694-0.848,0.447-1.342
		l-1-2c-0.248-0.493-0.846-0.692-1.342-0.447c-0.494,0.247-0.694,0.848-0.447,1.342L39.105,51.409z"/>
	<path d="M43.553,48.856c0.144,0.071,0.296,0.105,0.446,0.105c0.367,0,0.72-0.202,0.896-0.553l1-2
		c0.247-0.494,0.047-1.095-0.447-1.342c-0.495-0.245-1.095-0.046-1.342,0.447l-1,2C42.858,48.009,43.059,48.609,43.553,48.856z"/>
	<path d="M42.555,14.13c-0.461-0.307-1.081-0.183-1.387,0.277s-0.182,1.08,0.277,1.387l3,2c0.17,0.113,0.363,0.168,0.554,0.168
		c0.323,0,0.64-0.156,0.833-0.445c0.306-0.46,0.182-1.08-0.277-1.387L42.555,14.13z"/>
	<path d="M37.447,15.067c-0.496-0.246-1.095-0.047-1.342,0.447l-1,2c-0.247,0.494-0.047,1.095,0.447,1.342
		c0.144,0.071,0.296,0.105,0.446,0.105c0.367,0,0.72-0.202,0.896-0.553l1-2C38.142,15.915,37.941,15.314,37.447,15.067z"/>
	<path d="M33.895,10.515c-0.247-0.493-0.847-0.692-1.342-0.447c-0.494,0.247-0.694,0.848-0.447,1.342l1,2
		c0.175,0.351,0.528,0.553,0.896,0.553c0.15,0,0.303-0.034,0.446-0.105c0.494-0.247,0.694-0.848,0.447-1.342L33.895,10.515z"/>
	<path d="M27.447,16.067c-0.496-0.246-1.095-0.046-1.342,0.447l-1,2c-0.247,0.494-0.047,1.095,0.447,1.342
		c0.144,0.071,0.296,0.105,0.446,0.105c0.367,0,0.72-0.202,0.896-0.553l1-2C28.142,16.915,27.941,16.314,27.447,16.067z"/>
	<path d="M28.447,7.067c-0.495-0.245-1.095-0.046-1.342,0.447l-1,2c-0.247,0.494-0.047,1.095,0.447,1.342
		c0.144,0.071,0.296,0.105,0.446,0.105c0.367,0,0.72-0.202,0.896-0.553l1-2C29.142,7.915,28.941,7.314,28.447,7.067z"/>
	<path d="M20.895,12.515c-0.247-0.494-0.847-0.693-1.342-0.447c-0.494,0.247-0.694,0.848-0.447,1.342l1,2
		c0.175,0.351,0.528,0.553,0.896,0.553c0.15,0,0.303-0.034,0.446-0.105c0.494-0.247,0.694-0.848,0.447-1.342L20.895,12.515z"/>
	<path d="M16.447,16.067c-0.496-0.246-1.095-0.046-1.342,0.447l-1,2c-0.247,0.494-0.047,1.095,0.447,1.342
		c0.144,0.071,0.296,0.105,0.446,0.105c0.367,0,0.72-0.202,0.896-0.553l1-2C17.142,16.915,16.941,16.314,16.447,16.067z"/>
	<path d="M34.293,34.255c-0.438,0.438-1.148,0.438-1.586,0c-1.217-1.217-3.197-1.217-4.414,0c-0.438,0.438-1.148,0.438-1.586,0
		c-1.217-1.217-3.197-1.217-4.414,0c-0.425,0.424-1.161,0.424-1.586,0c-1.217-1.217-3.197-1.217-4.414,0
		c-0.425,0.424-1.161,0.424-1.586,0c-1.217-1.217-3.197-1.217-4.414,0c-0.438,0.438-1.148,0.438-1.586,0
		c-1.18-1.18-3.234-1.18-4.414,0c-0.391,0.391-0.391,1.023,0,1.414s1.023,0.391,1.414,0c0.438-0.438,1.148-0.438,1.586,0
		c1.217,1.217,3.197,1.217,4.414,0c0.438-0.438,1.148-0.438,1.586,0c1.217,1.217,3.197,1.217,4.414,0
		c0.425-0.424,1.161-0.424,1.586,0c1.217,1.217,3.197,1.217,4.414,0c0.425-0.424,1.161-0.424,1.586,0
		c1.217,1.217,3.197,1.217,4.414,0c0.438-0.438,1.148-0.438,1.586,0c0.59,0.59,1.374,0.915,2.207,0.915s1.617-0.325,2.207-0.915
		c0.391-0.391,0.391-1.023,0-1.414S34.684,33.864,34.293,34.255z"/>
	<path d="M53.293,34.255c-0.425,0.424-1.161,0.424-1.586,0c-1.217-1.217-3.197-1.217-4.414,0c-0.391,0.391-0.391,1.023,0,1.414
		s1.023,0.391,1.414,0c0.425-0.424,1.161-0.424,1.586,0c0.608,0.608,1.408,0.913,2.207,0.913s1.599-0.305,2.207-0.913
		c0.391-0.391,0.391-1.023,0-1.414S53.684,33.864,53.293,34.255z"/>
	<path d="M54,29.962h-6.047l1.54-2H53c0.552,0,1-0.447,1-1s-0.448-1-1-1h-4H35.144H6c-0.552,0-1,0.447-1,1s0.448,1,1,1h28.651
		l1.54,2H5c-2.757,0-5,2.243-5,5s2.243,5,5,5h49c2.757,0,5-2.243,5-5S56.757,29.962,54,29.962z M46.968,27.962l-1.839,2.389
		c0,0,0,0,0,0l-3.057,3.971l-3.057-3.971l0,0l-1.839-2.389H46.968z M54,37.962H5c-1.654,0-3-1.346-3-3s1.346-3,3-3h32.73l3.549,4.61
		c0.189,0.245,0.482,0.39,0.792,0.39s0.603-0.145,0.792-0.39l3.549-4.61H54c1.654,0,3,1.346,3,3S55.654,37.962,54,37.962z"/>
	<path d="M52.973,41.962H6c-0.321,0-0.623,0.154-0.811,0.414c-0.188,0.261-0.24,0.596-0.139,0.9l2.524,7.619
		c1.018,3.076,3.88,5.143,7.121,5.143h29.6c3.247,0,6.11-2.072,7.125-5.157l2.503-7.606c0.101-0.305,0.048-0.639-0.14-0.898
		S53.294,41.962,52.973,41.962z M49.521,50.256c-0.745,2.263-2.844,3.782-5.226,3.782h-29.6c-2.377,0-4.476-1.516-5.222-3.771
		l-2.088-6.305h44.207L49.521,50.256z"/>
	<path d="M5.627,23.962h47.745c0.305,0,0.592-0.139,0.782-0.377s0.261-0.55,0.192-0.847C51.674,11.094,41.457,2.962,29.5,2.962
		S7.326,11.094,4.653,22.738c-0.068,0.297,0.002,0.608,0.192,0.847S5.323,23.962,5.627,23.962z M29.5,4.962
		c10.595,0,19.708,6.928,22.583,17H6.917C9.792,11.89,18.905,4.962,29.5,4.962z"/>
</g>
<g>
</g>
<g>
</g>
<g>
</g>
<g>
</g>
<g>
</g>
<g>
</g>
<g>
</g>
<g>
</g>
<g>
</g>
<g>
</g>
<g>
</g>
<g>
</g>
<g>
</g>
<g>
</g>
<g>
</g>
</svg>
