<?xml version="1.0" encoding="iso-8859-1"?>
<!-- Generator: Adobe Illustrator 18.0.0, SVG Export Plug-In . SVG Version: 6.00 Build 0)  -->
<!DOCTYPE svg PUBLIC "-//W3C//DTD SVG 1.1//EN" "http://www.w3.org/Graphics/SVG/1.1/DTD/svg11.dtd">
<svg version="1.1" id="Capa_1" xmlns="http://www.w3.org/2000/svg" xmlns:xlink="http://www.w3.org/1999/xlink" x="0px" y="0px"
	 viewBox="0 0 56.515 56.515" style="enable-background:new 0 0 56.515 56.515;" xml:space="preserve">
<g>
	<path d="M54.821,35.337c0.063-0.074,0.128-0.147,0.188-0.224c0.076-0.097,0.146-0.199,0.217-0.301
		c0.056-0.08,0.113-0.158,0.166-0.24c0.067-0.106,0.128-0.217,0.19-0.327c0.047-0.084,0.097-0.166,0.141-0.253
		c0.058-0.114,0.108-0.232,0.16-0.35c0.039-0.089,0.082-0.176,0.118-0.267c0.048-0.123,0.088-0.25,0.13-0.376
		c0.03-0.091,0.064-0.18,0.091-0.273c0.039-0.136,0.069-0.278,0.1-0.418c0.02-0.088,0.044-0.173,0.061-0.263
		c0.029-0.156,0.048-0.317,0.067-0.478c0.009-0.078,0.024-0.153,0.032-0.232c0.022-0.24,0.034-0.485,0.034-0.734
		c0-3.626-2.819-6.63-6.461-7.092C49.556,13.449,41.011,6.757,28.477,6.757c-12.789,0-21.507,6.691-22.016,16.754
		C2.819,23.972,0,26.977,0,30.603c0,0.242,0.013,0.482,0.038,0.718c0.009,0.082,0.026,0.162,0.037,0.243
		c0.021,0.153,0.041,0.306,0.072,0.455c0.02,0.094,0.048,0.184,0.072,0.277c0.034,0.133,0.065,0.268,0.106,0.398
		c0.031,0.097,0.07,0.19,0.105,0.286c0.045,0.121,0.087,0.243,0.138,0.361c0.041,0.096,0.09,0.188,0.136,0.281
		c0.055,0.113,0.108,0.227,0.169,0.336c0.051,0.092,0.109,0.181,0.164,0.271c0.064,0.105,0.127,0.21,0.197,0.311
		c0.061,0.089,0.128,0.173,0.193,0.259c0.073,0.097,0.145,0.194,0.223,0.287c0.07,0.083,0.144,0.162,0.218,0.242
		c0.082,0.089,0.163,0.178,0.249,0.263c0.078,0.077,0.16,0.149,0.241,0.223c0.09,0.081,0.179,0.162,0.273,0.238
		c0.085,0.069,0.173,0.135,0.261,0.2c0.097,0.073,0.195,0.145,0.296,0.213c0.092,0.062,0.186,0.119,0.281,0.177
		c0.104,0.063,0.208,0.126,0.316,0.185C3.88,36.88,3.98,36.929,4.08,36.978c0.111,0.054,0.222,0.107,0.336,0.156
		c0.102,0.044,0.206,0.084,0.311,0.124c0.117,0.044,0.235,0.087,0.355,0.125c0.107,0.034,0.215,0.066,0.324,0.095
		c0.123,0.034,0.246,0.064,0.371,0.092C5.888,37.596,6,37.617,6.112,37.637c0.128,0.022,0.256,0.041,0.386,0.057
		c0.114,0.014,0.228,0.026,0.344,0.034c0.061,0.005,0.121,0.015,0.182,0.018l2.223,2.129c1.661,1.592,3.131,3.392,4.493,5.098
		c2.428,3.04,6.052,4.784,9.944,4.784h9.583c3.893,0,7.517-1.744,9.944-4.784c1.362-1.706,2.832-3.506,4.493-5.098l2.228-2.134
		c0.063-0.004,0.124-0.015,0.187-0.021c0.112-0.01,0.223-0.022,0.333-0.037c0.125-0.017,0.249-0.037,0.371-0.06
		c0.107-0.02,0.213-0.041,0.318-0.065c0.121-0.028,0.24-0.06,0.358-0.094c0.102-0.029,0.203-0.059,0.302-0.093
		c0.116-0.039,0.23-0.082,0.344-0.127c0.096-0.038,0.192-0.077,0.286-0.119c0.111-0.05,0.219-0.104,0.326-0.159
		c0.09-0.046,0.18-0.093,0.268-0.143c0.105-0.06,0.207-0.124,0.308-0.19c0.084-0.054,0.169-0.108,0.25-0.166
		c0.099-0.07,0.193-0.144,0.287-0.219c0.078-0.061,0.156-0.122,0.231-0.187c0.092-0.079,0.179-0.163,0.266-0.248
		c0.071-0.068,0.142-0.135,0.21-0.206C54.663,35.523,54.742,35.43,54.821,35.337z M7.438,25.45c0.553,0,1-0.447,1-1
		c0-10.84,10.064-15.692,20.039-15.692c11.907,0,19.601,6.159,19.601,15.692c0,0.553,0.447,1,1,1c2.998,0,5.438,2.312,5.438,5.153
		c0,0.367-0.034,0.722-0.099,1.063c-0.021,0.112-0.066,0.213-0.094,0.322c-0.057,0.222-0.109,0.448-0.192,0.656
		c-0.048,0.12-0.119,0.224-0.176,0.339c-0.09,0.182-0.171,0.37-0.28,0.537c-0.072,0.11-0.164,0.202-0.244,0.305
		c-0.118,0.153-0.228,0.314-0.363,0.451c-0.097,0.099-0.213,0.176-0.318,0.266c-0.14,0.12-0.272,0.249-0.425,0.353
		c-0.118,0.08-0.252,0.135-0.378,0.205c-0.16,0.089-0.313,0.188-0.483,0.26c-0.136,0.057-0.287,0.087-0.43,0.132
		c-0.176,0.056-0.346,0.123-0.532,0.16c-0.151,0.03-0.314,0.031-0.471,0.048c-0.193,0.021-0.381,0.056-0.582,0.056
		c-3.223-0.025-5.933-1.845-5.933-3.999c0-0.553-0.447-1-1-1s-1,0.447-1,1c0,2.168-2.748,4-6,4s-6-1.832-6-4c0-0.553-0.447-1-1-1
		s-1,0.447-1,1c0,2.168-2.748,4-6,4s-6-1.832-6-4c0-0.553-0.447-1-1-1s-1,0.447-1,1c0,2.168-2.748,4-6,4c-0.026,0-0.053,0-0.077,0
		C4.439,35.757,2,33.445,2,30.603S4.439,25.45,7.438,25.45z M41.649,43.725c-2.046,2.563-5.102,4.032-8.382,4.032h-9.583
		c-3.28,0-6.336-1.47-8.382-4.032c-1.404-1.759-2.922-3.616-4.672-5.293l-0.94-0.901c2.069-0.439,3.801-1.489,4.824-2.872
		c1.366,1.846,3.992,3.098,7,3.098s5.634-1.252,7-3.098c1.366,1.846,3.992,3.098,7,3.098s5.634-1.252,7-3.098
		c1.013,1.37,2.72,2.411,4.762,2.858l-0.954,0.915C44.571,40.108,43.054,41.966,41.649,43.725z"/>
	<path d="M28.515,26.757c2.206,0,4-2.243,4-5c0-1.526-1.09-9-4-9s-4,7.474-4,9C24.515,24.514,26.309,26.757,28.515,26.757z
		 M28.515,14.797c0.803,0.635,2,4.74,2,6.96c0,1.626-0.916,3-2,3s-2-1.374-2-3C26.515,19.538,27.712,15.432,28.515,14.797z"/>
	<path d="M39.52,26.637c0.521,0,1.051-0.103,1.561-0.319c2.029-0.863,2.978-3.217,2.114-5.246c-0.562-1.32-3.873-5.96-6.421-4.875
		c-2.539,1.08-1.503,6.686-0.94,8.007C36.479,25.723,37.962,26.637,39.52,26.637z M37.552,18.039
		c0.023-0.006,0.049-0.009,0.076-0.009c0.786,0,3.099,2.349,3.727,3.825c0.432,1.015-0.043,2.191-1.058,2.623
		c-1.016,0.433-2.192-0.043-2.624-1.058C37.023,21.894,36.952,18.421,37.552,18.039z"/>
	<path d="M15.949,26.318c0.51,0.217,1.039,0.319,1.561,0.319c1.557,0,3.04-0.914,3.687-2.434c0.563-1.321,1.599-6.927-0.94-8.007
		c-2.551-1.086-5.859,3.555-6.421,4.875C12.972,23.101,13.92,25.455,15.949,26.318z M15.675,21.855
		c0.629-1.478,2.944-3.829,3.72-3.829c0.026,0,0.051,0.003,0.073,0.009c0.609,0.387,0.538,3.859-0.111,5.386
		c-0.432,1.015-1.609,1.49-2.624,1.058C15.718,24.046,15.243,22.87,15.675,21.855z"/>
	<path d="M30.501,43.742c-6.741,0.096-7.618-0.24-10.234-1.231c-0.517-0.193-1.093,0.064-1.29,0.581
		c-0.195,0.517,0.064,1.094,0.581,1.29c2.667,1.01,3.882,1.376,8.943,1.376c0.615,0,1.289-0.006,2.027-0.016
		c0.553-0.008,0.994-0.462,0.986-1.014C31.507,44.175,31.061,43.738,30.501,43.742z"/>
	<path d="M16.729,38.472c-0.319-0.451-0.943-0.559-1.394-0.241c-0.451,0.318-0.56,0.942-0.241,1.394
		c0.494,0.701,1.016,1.366,1.549,1.979c0.198,0.227,0.476,0.343,0.754,0.343c0.233,0,0.468-0.081,0.657-0.246
		c0.416-0.363,0.46-0.995,0.097-1.411C17.663,39.728,17.185,39.117,16.729,38.472z"/>
</g>
<g>
</g>
<g>
</g>
<g>
</g>
<g>
</g>
<g>
</g>
<g>
</g>
<g>
</g>
<g>
</g>
<g>
</g>
<g>
</g>
<g>
</g>
<g>
</g>
<g>
</g>
<g>
</g>
<g>
</g>
</svg>
