<?xml version="1.0" encoding="iso-8859-1"?>
<!-- Generator: Adobe Illustrator 18.0.0, SVG Export Plug-In . SVG Version: 6.00 Build 0)  -->
<!DOCTYPE svg PUBLIC "-//W3C//DTD SVG 1.1//EN" "http://www.w3.org/Graphics/SVG/1.1/DTD/svg11.dtd">
<svg version="1.1" id="Capa_1" xmlns="http://www.w3.org/2000/svg" xmlns:xlink="http://www.w3.org/1999/xlink" x="0px" y="0px"
	 viewBox="0 0 51 51" style="enable-background:new 0 0 51 51;" xml:space="preserve">
<g>
	<path d="M49,34.379c-0.552,0-1,0.447-1,1c0,1.103-0.897,2-2,2s-2-0.897-2-2h-2c0,1.103-0.897,2-2,2s-2-0.897-2-2h-2
		c0,1.103-0.897,2-2,2s-2-0.897-2-2h-2c0,1.103-0.897,2-2,2s-2-0.897-2-2h-2c0,1.103-0.897,2-2,2s-2-0.897-2-2h-2
		c0,1.103-0.897,2-2,2s-2-0.897-2-2h-2c0,1.103-0.897,2-2,2s-2-0.897-2-2H6c0,1.103-0.897,2-2,2s-2-0.897-2-2c0-0.553-0.448-1-1-1
		s-1,0.447-1,1c0,2.206,1.794,4,4,4c1.193,0,2.267-0.525,3-1.357c0.733,0.832,1.807,1.357,3,1.357s2.267-0.525,3-1.357
		c0.733,0.832,1.807,1.357,3,1.357s2.267-0.525,3-1.357c0.733,0.832,1.807,1.357,3,1.357s2.267-0.525,3-1.357
		c0.733,0.832,1.807,1.357,3,1.357s2.267-0.525,3-1.357c0.733,0.832,1.807,1.357,3,1.357s2.267-0.525,3-1.357
		c0.733,0.832,1.807,1.357,3,1.357s2.267-0.525,3-1.357c0.733,0.832,1.807,1.357,3,1.357c2.206,0,4-1.794,4-4
		C50,34.826,49.552,34.379,49,34.379z"/>
	<path d="M47,41H5c-0.552,0-1,0.447-1,1v8c0,0.553,0.448,1,1,1h42c0.552,0,1-0.447,1-1v-8C48,41.447,47.552,41,47,41z M46,49H6v-6
		h40V49z"/>
	<path d="M48,26.829V22c0-0.022-0.011-0.04-0.012-0.062c-0.006-0.091-0.023-0.178-0.053-0.264c-0.011-0.032-0.019-0.064-0.034-0.095
		c-0.048-0.103-0.108-0.2-0.191-0.283c-0.001-0.001-0.002-0.003-0.003-0.004L26.707,0.293c-0.391-0.391-1.023-0.391-1.414,0
		L4.294,21.292c-0.001,0.001-0.002,0.003-0.003,0.004c-0.083,0.083-0.143,0.181-0.191,0.283c-0.014,0.031-0.022,0.063-0.034,0.095
		c-0.03,0.086-0.048,0.173-0.053,0.264C4.011,21.96,4,21.978,4,22v3.222c-2.451,0.706-4,2.321-4,4.278C0,32.065,3.439,34,8,34
		c2.178,0,4.095-0.445,5.509-1.186C14.97,33.572,16.929,34,19,34c2.447,0,4.564-0.561,6.008-1.473C26.493,33.457,28.663,34,31,34
		c2.354,0,4.404-0.518,5.842-1.37C38.315,33.495,40.545,34,43,34c3.976,0,8-1.374,8-4C51,28.689,49.913,27.559,48,26.829z
		 M37.746,27h-0.179H25.746H22.96h-8.214h-2.792H7.5c-1.164,0-1.415-0.202-1.419-0.202c-0.033-0.064-0.045-0.302-0.053-0.458
		C6.022,26.218,6.012,26.096,6,25.974V23h40v3.197V27H37.746z M26,2.414L44.586,21H7.414L26,2.414z M2,29.5
		c0-0.758,0.633-1.638,2-2.177V28c0,0.553,0.448,1,1,1h2.5h6.307c0.024,0.037,0.066,0.077,0.085,0.114
		c0.001,0.001,0.001,0.002,0.002,0.004C13.964,29.251,14,29.38,14,29.5c0,0.117-0.038,0.24-0.094,0.365
		c-0.024,0.052-0.061,0.105-0.095,0.157c-0.043,0.069-0.092,0.138-0.151,0.207c-0.06,0.07-0.127,0.139-0.202,0.208
		c-0.05,0.046-0.108,0.092-0.165,0.137c-0.103,0.082-0.205,0.164-0.328,0.242l-0.007,0.005C11.944,31.469,10.239,32,8,32
		C4.283,32,2,30.544,2,29.5z M15.288,31.41c0.228-0.287,0.406-0.591,0.526-0.911c0.002-0.005,0.004-0.009,0.006-0.013
		c0.054-0.147,0.095-0.296,0.125-0.449c0.003-0.014,0.008-0.027,0.011-0.041C15.983,29.833,16,29.668,16,29.5
		c0-0.169-0.016-0.335-0.046-0.5h8.859c0.02,0.031,0.055,0.065,0.071,0.096c0.006,0.012,0.011,0.024,0.017,0.036
		C24.963,29.259,25,29.382,25,29.5c0,0.116-0.038,0.239-0.094,0.363c-0.018,0.039-0.04,0.077-0.063,0.115
		c-0.05,0.087-0.116,0.175-0.191,0.262c-0.063,0.071-0.126,0.136-0.193,0.196C23.584,31.247,21.671,32,19,32
		C17.654,32,16.35,31.787,15.288,31.41z M26.518,31.088c0.009-0.014,0.015-0.028,0.023-0.042c0.059-0.097,0.114-0.194,0.162-0.294
		c0.023-0.047,0.042-0.095,0.062-0.142c0.035-0.083,0.07-0.167,0.097-0.252c0.024-0.074,0.04-0.149,0.057-0.224
		c0.015-0.064,0.033-0.128,0.044-0.194C26.986,29.794,27,29.648,27,29.5c0-0.168-0.016-0.334-0.047-0.5h9.86
		c0.032,0.051,0.076,0.104,0.099,0.153c0.004,0.01,0.01,0.02,0.014,0.029C36.973,29.293,37,29.399,37,29.5
		c0,0.122-0.038,0.25-0.098,0.38c-0.02,0.041-0.048,0.077-0.072,0.116c-0.051,0.085-0.112,0.171-0.188,0.257
		c-0.043,0.048-0.085,0.096-0.13,0.138c-0.114,0.111-0.242,0.221-0.394,0.328l-0.051,0.039C35.07,31.436,33.314,32,31,32
		C29.285,32,27.667,31.662,26.518,31.088z M43,32c-1.739,0-3.395-0.299-4.554-0.795c0.021-0.03,0.032-0.059,0.051-0.088
		c0.07-0.109,0.136-0.219,0.192-0.332c0.03-0.06,0.052-0.118,0.077-0.177c0.036-0.086,0.071-0.172,0.098-0.259
		c0.025-0.079,0.042-0.154,0.059-0.23c0.015-0.065,0.031-0.13,0.042-0.197C38.987,29.772,39,29.629,39,29.5
		c0-0.168-0.016-0.335-0.046-0.5H47h0.975C48.705,29.388,49,29.782,49,30C49,30.705,46.722,32,43,32z"/>
	<circle cx="36" cy="18" r="1"/>
	<circle cx="25" cy="9" r="1"/>
	<circle cx="16" cy="18" r="1"/>
	<circle cx="29" cy="15" r="1"/>
	<circle cx="23" cy="16" r="1"/>
	<circle cx="33" cy="45" r="1"/>
	<circle cx="41" cy="47" r="1"/>
	<circle cx="9" cy="47" r="1"/>
	<circle cx="26" cy="47" r="1"/>
	<circle cx="17" cy="45" r="1"/>
</g>
<g>
</g>
<g>
</g>
<g>
</g>
<g>
</g>
<g>
</g>
<g>
</g>
<g>
</g>
<g>
</g>
<g>
</g>
<g>
</g>
<g>
</g>
<g>
</g>
<g>
</g>
<g>
</g>
<g>
</g>
</svg>
